<?xml version="1.0" encoding="UTF-8"?>
<svg width="759px" height="281px" viewBox="0 0 759 281" version="1.1" xmlns="http://www.w3.org/2000/svg" xmlns:xlink="http://www.w3.org/1999/xlink">
    <!-- Generator: Sketch 46.2 (44496) - http://www.bohemiancoding.com/sketch -->
    <title>netflix</title>
    <desc>Created with Sketch.</desc>
    <defs>
        <rect id="path-1" x="0" y="0" width="759" height="281"></rect>
    </defs>
    <g id="Page-1" stroke="none" stroke-width="1" fill="none" fill-rule="evenodd">
        <g id="netflix" transform="translate(-173.000000, -277.000000)">
            <rect id="Rectangle-2" x="0" y="0" width="1104" height="835"></rect>
            <g id="Group-5" transform="translate(173.000000, 277.000000)">
                <g id="Rectangle">
                    <use fill="#000000" fill-rule="evenodd" xlink:href="#path-1"></use>
                    <rect stroke="#979797" stroke-width="1" x="0.5" y="0.5" width="758" height="280"></rect>
                </g>
                <path d="M604.28421,215.449083 C612.821371,216.275127 621.354445,217.162358 629.867085,218.080184 L648.661915,171.7565 L666.527017,222.353172 C675.693533,223.499435 684.855961,224.702806 693.989783,225.959208 L662.669152,137.234015 L694,60.0061188 L667.46492,60.0061188 L667.189066,60.3854868 L650.26391,102.105765 L635.404592,60.0122377 L609.204623,60.0122377 L636.252587,136.630289 L604.286254,215.449083 L604.28421,215.449083 Z M584.469743,213.633828 L584.469743,60.0061188 L558.27999,60.0061188 L558.27999,211.477957 C567.015357,212.15103 575.75481,212.873053 584.469743,213.631788 L584.469743,213.633828 Z M387.734986,205.042979 C394.805014,205.042979 401.866868,205.096009 408.916462,205.153118 L408.916462,148.712955 L440.378085,148.712955 L440.378085,124.678159 L408.918506,124.678159 L408.918506,84.0694697 L445.153419,84.0694697 L445.153419,60.0061188 L382.626585,60.0061188 L382.626585,205.063375 C384.324618,205.063375 386.030824,205.03686 387.734986,205.042979 L387.734986,205.042979 Z M306.421496,206.5115 C315.146645,206.201479 323.879968,205.940409 332.625552,205.728289 L332.625552,84.0735489 L357.105011,84.0735489 L357.105011,60.0122377 L281.942036,60.0122377 L281.942036,84.0735489 L306.425582,84.0735489 L306.425582,206.5115 L306.421496,206.5115 Z M106.123118,222.710105 L106.123118,131.182484 L137.133158,219.014326 C146.669522,217.945569 156.22019,216.94004 165.797421,215.989581 L165.797421,60.0081585 L140.668172,60.0081585 L140.668172,154.815476 L107.206099,60.0081585 L81,60.0081585 L81,226 L81.1573388,226 C89.4595128,224.853738 97.7902939,223.764584 106.123118,222.710105 L106.123118,222.710105 Z M256.688143,84.0674301 L256.688143,60.0081585 L194.155179,60.0081585 L194.155179,213.389075 C214.960486,211.596389 235.789799,210.093048 256.637058,208.879491 L256.637058,184.797783 C244.548537,185.49941 232.484536,186.307097 220.449143,187.206566 L220.449143,148.723153 L251.910765,148.723153 L251.910765,124.67408 L220.449143,124.67408 L220.449143,84.0674301 L256.688143,84.0674301 Z M497.056821,183.647442 L497.056821,60 L470.75264,60 L470.75264,206.599204 C491.676652,207.366098 512.51893,208.434855 533.291734,209.781 L533.291734,185.685015 C521.235906,184.907923 509.159645,184.232811 497.056821,183.645402 L497.056821,183.647442 Z" id="Shape" fill="#E60915" fill-rule="nonzero"></path>
            </g>
        </g>
    </g>
</svg>